<?xml version="1.0" encoding="UTF-8" standalone="no"?>
<!-- Created with Inkscape (http://www.inkscape.org/) -->

<svg
   version="1.1"
   id="svg2"
   xml:space="preserve"
   width="616.8432"
   height="396.15201"
   viewBox="0 0 616.8432 396.15201"
   sodipodi:docname="kofi_logo.svg"
   inkscape:version="1.1.2 (0a00cf5339, 2022-02-04)"
   xmlns:inkscape="http://www.inkscape.org/namespaces/inkscape"
   xmlns:sodipodi="http://sodipodi.sourceforge.net/DTD/sodipodi-0.dtd"
   xmlns="http://www.w3.org/2000/svg"
   xmlns:svg="http://www.w3.org/2000/svg"><defs
     id="defs6" /><sodipodi:namedview
     id="namedview4"
     pagecolor="#ffffff"
     bordercolor="#666666"
     borderopacity="1.0"
     inkscape:pageshadow="2"
     inkscape:pageopacity="0.0"
     inkscape:pagecheckerboard="0"
     showgrid="false"
     fit-margin-top="0"
     fit-margin-left="0"
     fit-margin-right="0"
     fit-margin-bottom="0"
     inkscape:zoom="0.35399533"
     inkscape:cx="-264.12778"
     inkscape:cy="508.48128"
     inkscape:window-width="1920"
     inkscape:window-height="979"
     inkscape:window-x="1280"
     inkscape:window-y="32"
     inkscape:window-maximized="1"
     inkscape:current-layer="g8" /><g
     id="g8"
     inkscape:groupmode="layer"
     inkscape:label="ink_ext_XXXXXX"
     transform="matrix(1.3333333,0,0,-1.3333333,-122.06703,582.01599)"><g
       id="g10"
       transform="scale(0.1)"><path
         d="m 5484.27,3458.67 c -63.2,333.74 -242.85,541.64 -426.97,670.19 -190.41,132.95 -418.49,201.26 -650.72,201.26 H 1110.72 c -114.646,0 -158.564,-111.94 -159.001,-168.01 -0.047,-7.31 0.215,-36.57 0.215,-36.57 0,0 -5.411,-1458.13 4.824,-2236.93 31.101,-459.78 491.782,-459.63 491.782,-459.63 0,0 1504.03,4.41 2225.34,8.89 33.83,0.22 67.61,3.86 100.44,12.07 410.68,102.75 453.17,484.28 448.78,696.96 825.48,-45.86 1407.92,536.64 1261.17,1311.77 m -927.31,-756.75 c -176.05,-22 -319.08,-5.48 -319.08,-5.48 v 1077.95 h 216.62 c 143.17,0 281.27,-59.61 374.69,-168.1 65.76,-76.38 118.37,-183.88 118.37,-332.37 0,-362.99 -187.04,-506 -390.6,-572"
         style="fill:#ffffff;fill-opacity:1;fill-rule:nonzero;stroke:none"
         id="path12" /><path
         d="m 5484.27,3458.67 c -63.2,333.74 -242.85,541.64 -426.97,670.19 -190.41,132.95 -418.49,201.26 -650.72,201.26 H 1110.72 c -114.646,0 -158.564,-111.94 -159.001,-168.01 -0.047,-7.31 0.215,-36.57 0.215,-36.57 0,0 -5.411,-1458.13 4.824,-2236.93 31.101,-459.78 491.782,-459.63 491.782,-459.63 0,0 1504.03,4.41 2225.34,8.89 33.83,0.22 67.61,3.86 100.44,12.07 410.68,102.75 453.17,484.28 448.78,696.96 825.48,-45.86 1407.92,536.64 1261.17,1311.77 m -927.31,-756.75 c -176.05,-22 -319.08,-5.48 -319.08,-5.48 v 1077.95 h 216.62 c 143.17,0 281.27,-59.61 374.69,-168.1 65.76,-76.38 118.37,-183.88 118.37,-332.37 0,-362.99 -187.04,-506 -390.6,-572"
         style="fill:none;stroke:#2f3542;stroke-width:70;stroke-linecap:butt;stroke-linejoin:miter;stroke-miterlimit:10;stroke-dasharray:none;stroke-opacity:1"
         id="path14" /><path
         d="m 2566.14,2033.67 c 35.85,-18.05 58.75,4.38 58.75,4.38 0,0 524.57,478.78 760.89,754.51 210.2,246.66 223.9,662.34 -137.07,817.66 -360.97,155.31 -657.96,-182.72 -657.96,-182.72 -257.55,283.26 -647.33,268.92 -827.62,77.22 -180.28,-191.7 -117.33,-520.73 17.17,-703.84 126.25,-171.9 681.18,-666.5 765.3,-750.15 0,0 6.12,-6.4 20.54,-17.06"
         style="fill:#f14255;fill-opacity:1;fill-rule:nonzero;stroke:none"
         id="path16" /></g></g></svg>
